<svg width="19" height="19" fill="none" xmlns="http://www.w3.org/2000/svg"><path d="M15.651 17.777 12.13 14.29a.843.843 0 0 1-.249-.597l-.003-.573a7.275 7.275 0 0 1-4.492 1.57A7.311 7.311 0 0 1 .037 7.414 7.311 7.311 0 0 1 7.312.064 7.311 7.311 0 0 1 14.66 7.34a7.278 7.278 0 0 1-1.524 4.508l.573-.003a.842.842 0 0 1 .599.243l3.522 3.488a.84.84 0 0 1 .006 1.192l-.99 1a.848.848 0 0 1-1.195.01ZM11.848 7.354a4.497 4.497 0 0 0-4.522-4.477A4.497 4.497 0 0 0 2.849 7.4a4.497 4.497 0 0 0 4.522 4.477 4.497 4.497 0 0 0 4.477-4.523Z" fill="#fff"/></svg>